# xmcd CD database file generated by Grip 2.94
# 
# Track frame offsets:
#       150
#       15020
#       35837
# 
# Disc length: 716 seconds
# 
# Revision: 3
# Processed by: cddbd v1.4b41PL1 Copyright (c) Steve Scherf et al.
# Submitted via: Grip 2.94
# 
DISCID=1602ca03
DTITLE=Ben Harper - Live Promo CD
DYEAR=1900
DGENRE=
TTITLE0=Beloved One [live]
TTITLE1=Please Bleed [live]
TTITLE2=In the Lord's Arms [live]
EXTD=
EXTT0=
EXTT1=
EXTT2=
PLAYORDER=
